<?xml version="1.0" encoding="UTF-8" standalone="no"?>
<svg
   style="fill-opacity:1; color-rendering:auto; color-interpolation:auto; text-rendering:auto; stroke:black; stroke-linecap:square; stroke-miterlimit:10; shape-rendering:auto; stroke-opacity:1; fill:black; stroke-dasharray:none; font-weight:normal; stroke-width:1; font-family:'Dialog'; font-style:normal; stroke-linejoin:miter; font-size:12px; stroke-dashoffset:0; image-rendering:auto;"
   width="1500"
   height="750"
   version="1.1"
   id="svg35"
   sodipodi:docname="inductor_current.svg"
   inkscape:version="1.1.1 (3bf5ae0d25, 2021-09-20)"
   xmlns:inkscape="http://www.inkscape.org/namespaces/inkscape"
   xmlns:sodipodi="http://sodipodi.sourceforge.net/DTD/sodipodi-0.dtd"
   xmlns="http://www.w3.org/2000/svg"
   xmlns:svg="http://www.w3.org/2000/svg">
  <sodipodi:namedview
     id="namedview37"
     pagecolor="#ffffff"
     bordercolor="#666666"
     borderopacity="1.0"
     inkscape:pageshadow="2"
     inkscape:pageopacity="0.0"
     inkscape:pagecheckerboard="0"
     showgrid="false"
     inkscape:zoom="0.95866667"
     inkscape:cx="750"
     inkscape:cy="374.47844"
     inkscape:window-width="3840"
     inkscape:window-height="2066"
     inkscape:window-x="-11"
     inkscape:window-y="-11"
     inkscape:window-maximized="1"
     inkscape:current-layer="svg35" />
  <!--Generated by the Batik Graphics2D SVG Generator-->
  <defs
     id="genericDefs">
    <defs
       id="defs1">
      <clipPath
         clipPathUnits="userSpaceOnUse"
         id="clipPath1">
        <path
           d="M0 0 L1500 0 L1500 750 L0 750 L0 0 Z"
           id="path3" />
      </clipPath>
    </defs>
  </defs>
  <g
     style="color-interpolation:linearRGB;fill:#262626;stroke:#262626;stroke-linejoin:round;color-rendering:optimizeQuality;image-rendering:optimizeQuality;text-rendering:geometricPrecision"
     id="g21">
    <line
       y2="667"
       style="fill:none"
       x1="195"
       x2="1358"
       y1="667"
       id="line17" />
    <line
       y2="56"
       style="fill:none"
       x1="195"
       x2="195"
       y1="667"
       id="line19" />
  </g>
  <path
     d="m 195,667 h 2.3307 2.3306 2.3307 2.3306 2.3307 2.3307 2.3306 2.3307 2.3307 2.3306 2.3307 2.3306 2.3307 2.3307 2.3306 2.3307 2.3306 2.3307 2.3307 2.3306 2.3307 2.3307 2.3306 2.3307 2.3306 2.3307 2.3307 2.3306 2.3307 2.3306 2.3307 2.3306 2.3307 2.3307 2.3307 2.3306 2.3307 2.3306 2.3307 2.3306 2.3307 2.3307 2.3306 2.3307 2.3307 2.3306 2.3307 2.3306 2.3307 2.3307 2.3306 2.3307 2.3307 2.3306 2.3307 2.3306 2.3307 2.3306 2.3307 2.3307 2.3306 2.3307 2.3307 2.3306 2.3307 2.3306 2.3307 2.3307 2.3306 2.3307 2.3307 2.3306 2.3307 2.3306 2.3307 2.3307 2.3306 2.3307 2.3307 2.3306 2.3307 2.3306 2.3307 2.3306 2.3307 2.3307 2.3306 2.3307 2.3307 2.3306 2.3307 2.3306 2.3307 2.3307 2.3306 2.3307 2.3306 2.3307 2.3307 2.3306 l 2.3307,-611 h 2.3306 2.3307 2.3307 2.3306 2.3307 2.3307 2.3306 2.3307 2.3306 2.3307 2.3307 2.3306 2.3307 2.3306 2.3307 2.3307 2.3306 2.3307 2.3307 2.3306 2.3307 2.3306 2.3307 2.3306 2.3307 2.3307 2.3306 2.3307 2.3307 2.3306 2.3307 2.3306 2.3307 2.3307 2.3306 2.3307 2.3307 2.3306 2.3307 2.3306 2.3307 2.3307 2.3306 2.3307 2.3307 2.3306 2.3307 2.3307 2.3306 2.3307 2.3307 2.3306 2.3307 2.3306 2.3307 2.3306 2.3307 2.3306 2.3307 2.3307 2.3306 2.3307 2.3307 2.3306 2.3307 2.3307 2.3306 2.3307 2.3306 2.3307 2.3306 2.3307 2.3306 2.3307 2.3307 2.3306 2.3307 2.3307 2.3306 2.3307 2.3307 2.3306 2.3307 2.3307 2.3306 2.3307 2.3306 2.3307 2.3306 2.3307 2.3306 2.3307 2.3307 2.3306 2.3307 2.3307 2.3306 2.3307 2.3307 2.3307 2.3306 2.3307 2.3306 2.3307 2.3306 2.3307 2.3306 2.3307 2.3306 2.3307 2.3307 2.3306 2.3307 2.3307 2.3307 2.3306 2.3307 2.3307 2.3306 2.3307 2.3306 2.3307 2.3306 2.3307 2.3306 2.3307 2.3306 2.3307 2.3307 2.3307 2.3306 2.3307 2.3307 2.3306 2.3307 2.3307 2.3306 2.3307 2.3306 2.3307 2.3306 2.3307 2.3306 2.3307 2.3307 2.3306 2.3307 2.3307 2.3306 2.3307 2.3307 2.3306 2.3307 2.3307 2.3306 2.3307 2.3306 2.3307 2.3306 2.3307 2.3306 2.3307 2.3307 2.3306 2.3307 2.3307 2.3306 2.3307 2.3307 2.3306 2.3307 2.3307 2.3306 2.3307 2.3307 2.3306 2.3307 2.3306 2.3307 2.3306 2.3307 2.3306 2.3307 2.3307 2.3307 2.3306 2.3307 2.3306 2.3307 2.3307 2.3306 2.3307 2.3307 2.3306 2.3307 2.3306 2.3307 2.3306 2.3307 l 2.3307,611 h 2.3306 2.3307 2.3307 2.3306 2.3307 2.3306 2.3307 2.3306 2.3307 2.3307 2.3306 2.3307 2.3307 2.3307 2.3306 2.3306 2.3307 2.3307 2.3306 2.3307 2.3307 2.3306 2.3306 2.3307 2.3307 2.3307 2.3306 2.3307 2.3306 2.3307 2.3306 2.3307 2.3307 2.3307 2.3306 2.3307 2.3306 2.3307 2.3306 2.3307 2.3307 2.3307 2.3306 2.3306 2.3307 2.3307 2.3306 2.3307 2.3307 2.3306 2.3307 2.3306 2.3307 2.3307 2.3307 2.3306 2.3306 2.3307 2.3307 2.3307 2.3307 2.3307 2.3305 2.3307 2.3307 2.3307 2.3305 2.3307 2.3307 2.3307 2.3306 2.3307 2.3307 2.3306 2.3306 2.3307 2.3307 2.3307 2.3305 2.3307 2.3307 2.3307 2.3306 2.3307 2.3307 2.3306 2.3306 2.3307 2.3307 2.3307 2.3307 2.3305 2.3307 2.3307 2.3307 2.3307 2.3307 2.3307 2.3305 2.3307 2.3307 2.3307 2.3306 2.3306 2.3307 2.3307 2.3306 2.3307 2.3307 2.3307 2.3305 2.3307 2.3307 2.3307 2.3306 2.3306 2.3307 2.3307 2.3306 2.3307 2.3307 2.3307 2.3305 2.3307 2.3307 2.3307 2.3307 2.3305 2.3307 2.3307 2.3307 2.3307 2.3307 2.3305 2.3307 2.3307 2.3307 2.3307 2.3306 2.3307 2.3306 2.3307 2.3306 2.3307 2.3307 2.3307 2.3305 2.3307 2.3307 2.3307 2.3306 2.3307 2.3306 2.3307 2.3306 2.3307 2.3307 2.3307 2.3305 2.3307 2.3307 2.3307 2.3306 2.3306 2.3307 2.3307 2.3307 2.3307 2.3306 2.3307 2.3306 2.3307 2.3307 2.3307 2.3306 2.3307 2.3307 2.3306 2.3306 2.3307 2.3307 2.3307 2.3305 2.3307 2.3307 2.3307 2.3306 2.3307 2.3306 2.3307 2.3306 2.3307 2.3307 2.3307 2.3305 2.3307 2.3307 2.3307"
     style="color-interpolation:linearRGB;fill:none;fill-rule:evenodd;stroke:#0072bd;stroke-width:3;stroke-linecap:butt;stroke-linejoin:round;color-rendering:optimizeQuality;image-rendering:optimizeQuality;text-rendering:geometricPrecision"
     id="path23" />
  <path
     d="m 195,667 h 29.075 29.075 29.075 29.075 29.075 29.075 29.075 29.075 0.1817 0.1817 0.1818 0.1817 0.0513 0.0513 0.0512 0.0513 3e-4 3e-4 3e-4 3e-4 l 3e-4,9e-4 3e-4,-10e-4 3e-4,-0.006 3e-4,-0.008 2e-4,-0.006 3e-4,-0.006 2e-4,-0.006 2e-4,-0.006 10e-4,-0.0322 0.001,-0.0321 10e-4,-0.0321 0.001,-0.0321 0.006,-0.1605 0.006,-0.1605 0.006,-0.1605 0.006,-0.1604 0.0307,-0.8015 0.0307,-0.8004 0.0307,-0.7993 0.0307,-0.7983 0.1535,-3.9757 0.1534,-3.9497 0.1535,-3.9239 0.1535,-3.8981 0.7673,-19.111 0.7673,-18.4932 0.7674,-17.8956 0.7673,-17.317 0.8838,-19.2541 0.8839,-18.5389 0.8838,-17.8504 0.8839,-17.1874 0.9625,-17.992 0.9625,-17.2654 0.9625,-16.5683 0.9625,-15.8993 1.0615,-16.7906 1.0615,-16.0445 1.0614,-15.3315 1.0615,-14.6503 1.1491,-15.1274 1.1491,-14.401 1.1492,-13.7095 1.1491,-13.0513 1.2325,-13.3022 1.2324,-12.6183 1.2325,-11.9696 1.2325,-11.3543 1.3145,-11.4674 1.3144,-10.8398 1.3145,-10.2465 1.3145,-9.6856 1.3973,-9.7157 1.3974,-9.1514 1.3973,-8.6197 1.3974,-8.1192 1.4828,-8.1008 1.4828,-7.6024 1.4828,-7.1346 1.4828,-6.6956 1.5725,-6.6511 1.5724,-6.2179 1.5725,-5.8129 1.5724,-5.4345 1.6678,-5.3779 1.6678,-5.0072 1.6678,-4.662 1.6677,-4.3407 1.7705,-4.2811 1.7705,-3.9686 1.7705,-3.6787 1.7705,-3.4101 1.8822,-3.3531 1.8824,-3.0934 1.8823,-2.8537 1.8823,-2.6327 2.0054,-2.5811 2.0054,-2.3687 2.0054,-2.1737 2.0054,-1.9947 2.1422,-1.9501 2.1422,-1.779 2.1422,-1.6231 2.1422,-1.4807 2.2957,-1.4433 2.2957,-1.3082 2.2957,-1.1855 2.2957,-1.0745 2.4698,-1.0441 2.4697,-0.9392 2.4697,-0.845 2.4697,-0.7601 2.669,-0.736 2.6689,-0.6565 2.669,-0.5855 2.6689,-0.5223 2.8995,-0.5039 2.8995,-0.4449 2.8995,-0.3929 2.8995,-0.347 3.1694,-0.3333 3.1695,-0.291 3.1695,-0.254 3.1694,-0.2217 3.4897,-0.2118 3.4896,-0.1824 3.4896,-0.157 3.4897,-0.1352 3.8749,-0.1284 3.875,-0.1087 3.875,-0.092 3.8749,-0.078 4.3466,-0.0734 4.3464,-0.061 4.3465,-0.0505 4.3465,-0.042 4.9348,-0.0392 4.9348,-0.0316 4.9348,-0.0256 4.9348,-0.0207 5.6859,-0.0191 5.6861,-0.015 5.6859,-0.0116 5.6859,-0.0091 6.6722,-0.0084 6.672,-0.0063 6.6721,-0.0046 6.6722,-0.0034 8.0114,-0.0032 8.0115,-0.0022 8.0115,-0.0015 8.0115,-0.0011 9.9086,-9e-4 9.9086,-7e-4 9.9086,-3e-4 9.9086,-3e-4 12.7335,-2e-4 12.7334,-2e-4 h 12.7335 12.7335 L 824.2316,56 h 17.1186 17.1188 17.1186 2.3144 2.3142 2.3143 2.3143 2.3143 2.3143 2.3143 2.3142 0.2893 0.2893 0.2893 0.2893 0.0514 0.0514 0.0514 0.0515 0.0213 0.0214 0.0214 0.0215 0.0105 0.0106 0.0106 0.0106 0.002 0.002 0.002 0.002 l 0.002,-0.0057 0.002,0.0071 0.002,0.0349 0.002,0.0505 0.002,0.0383 0.001,0.0383 10e-4,0.0383 0.002,0.0382 0.007,0.1914 0.007,0.1913 0.007,0.1913 0.007,0.1911 0.0366,0.955 0.0366,0.9535 0.0366,0.952 0.0366,0.9506 0.183,4.7303 0.1829,4.6934 0.183,4.6568 0.1829,4.6204 0.9147,22.5671 0.9148,21.7001 0.9147,20.8666 0.9148,20.065 1.2091,25.3431 1.2091,24.0643 1.2091,22.8501 1.209,21.6971 1.2043,20.5234 1.2044,19.4919 1.2043,18.5121 1.2042,17.5816 1.2045,16.6991 1.2044,15.8597 1.2043,15.0625 1.2044,14.3053 1.2044,13.5863 1.2044,12.9034 1.2044,12.2548 1.2044,11.6388 1.2044,11.0538 1.2043,10.4982 1.2044,9.9704 1.2044,9.4693 1.2044,8.9934 1.2044,8.5413 1.2044,8.1119 1.2043,7.7042 1.2044,7.317 1.2044,6.9492 1.2044,6.5999 1.2044,6.2681 1.2044,5.953 1.2044,5.6539 1.2044,5.3696 1.2044,5.0998 1.2118,4.873 1.212,4.6267 1.212,4.3925 1.212,4.1705 1.2628,4.1215 1.2629,3.9045 1.2628,3.699 1.2629,3.5043 1.3155,3.4543 1.3156,3.2651 1.3154,3.0863 1.3155,2.9172 1.3728,2.8739 1.3727,2.7097 1.3727,2.5551 1.3726,2.4092 1.435,2.3716 1.4348,2.2301 1.4349,2.0973 1.4349,1.9722 1.5028,1.9397 1.5027,1.8188 1.5027,1.7054 1.5028,1.5991 1.5769,1.5711 1.5771,1.4686 1.577,1.3726 1.577,1.283 1.6587,1.2592 1.6586,1.1729 1.6587,1.0924 1.6588,1.0175 1.7488,0.9974 1.7489,0.9254 1.7489,0.8587 1.7489,0.7967 1.8489,0.7798 1.8489,0.7205 1.8489,0.6656 1.8489,0.615 1.9605,0.6011 1.9605,0.5526 1.9605,0.5081 1.9605,0.4672 2.0857,0.4559 2.0855,0.4169 2.0857,0.3812 2.0856,0.3487 2.2268,0.3395 2.2269,0.3086 2.2268,0.2805 2.2269,0.255 2.3873,0.2477 2.3874,0.2237 2.3874,0.2019 2.3873,0.1822 2.5713,0.1766 2.5711,0.1581 2.5713,0.1417 2.5712,0.1269 2.7837,0.1225 2.7838,0.1088 2.7837,0.0964 2.7837,0.0857 3.0317,0.0824 3.0318,0.0724 3.0317,0.0636 3.0317,0.0558 3.3245,0.0534 3.3245,0.0463 3.3244,0.0402 3.3246,0.0349 3.6745,0.0332 3.6746,0.0283 3.6746,0.0242 3.6747,0.0206 4.0996,0.0196 4.0996,0.0165 4.0997,0.0137 4.0996,0.0115 4.625,0.0108 4.625,0.009 4.6249,0.007 4.625,0.006 5.2877,0.006 5.2878,0.004 5.2878,0.004 5.2878,0.003 6.1454,0.002 6.1455,0.002 6.1455,10e-4 6.1455,10e-4 7.2901,10e-4 7.2899,7e-4 7.2899,6e-4 7.2901,4e-4 8.8757,4e-4 8.8757,2e-4 8.8759,10e-5 8.8757,2e-4 11.1771,10e-5 h 11.1774 11.1771 11.1773 l 14.691,1e-4 h 14.6912 14.691 14.6912 3.6433 3.6432 3.6433 3.6433"
     style="color-interpolation:linearRGB;fill:none;fill-rule:evenodd;stroke:#d95319;stroke-width:3;stroke-linecap:butt;stroke-linejoin:round;color-rendering:optimizeQuality;image-rendering:optimizeQuality;text-rendering:geometricPrecision"
     id="path25" />
  <line
     x1="195"
     x2="1358.1387"
     y1="280.7869"
     style="color-interpolation:linearRGB;fill:none;stroke:#edb120;stroke-width:1;stroke-linecap:butt;stroke-linejoin:round;color-rendering:optimizeQuality;image-rendering:optimizeQuality;text-rendering:geometricPrecision"
     y2="280.7869"
     id="line27" />
  <line
     x1="195"
     x2="1358.1387"
     y1="442.2131"
     style="color-interpolation:linearRGB;fill:none;stroke:#7e2f8e;stroke-width:1;stroke-linecap:butt;stroke-linejoin:round;color-rendering:optimizeQuality;image-rendering:optimizeQuality;text-rendering:geometricPrecision"
     y2="442.2131"
     id="line29" />
</svg>
