<?xml version="1.0" encoding="UTF-8" standalone="no"?>
<svg
   style="fill-opacity:1; color-rendering:auto; color-interpolation:auto; text-rendering:auto; stroke:black; stroke-linecap:square; stroke-miterlimit:10; shape-rendering:auto; stroke-opacity:1; fill:black; stroke-dasharray:none; font-weight:normal; stroke-width:1; font-family:'Dialog'; font-style:normal; stroke-linejoin:miter; font-size:12px; stroke-dashoffset:0; image-rendering:auto;"
   width="1500"
   height="750"
   version="1.1"
   id="svg33"
   sodipodi:docname="rlc_switched_input_plot.svg"
   inkscape:version="1.1.1 (3bf5ae0d25, 2021-09-20)"
   xmlns:inkscape="http://www.inkscape.org/namespaces/inkscape"
   xmlns:sodipodi="http://sodipodi.sourceforge.net/DTD/sodipodi-0.dtd"
   xmlns="http://www.w3.org/2000/svg"
   xmlns:svg="http://www.w3.org/2000/svg">
  <sodipodi:namedview
     id="namedview35"
     pagecolor="#ffffff"
     bordercolor="#666666"
     borderopacity="1.0"
     inkscape:pageshadow="2"
     inkscape:pageopacity="0.0"
     inkscape:pagecheckerboard="0"
     showgrid="false"
     inkscape:zoom="0.95866667"
     inkscape:cx="812.58693"
     inkscape:cy="421.41864"
     inkscape:window-width="3840"
     inkscape:window-height="2066"
     inkscape:window-x="-11"
     inkscape:window-y="-11"
     inkscape:window-maximized="1"
     inkscape:current-layer="g29" />
  <!--Generated by the Batik Graphics2D SVG Generator-->
  <defs
     id="genericDefs" />
  <g
     id="g31">
    <defs
       id="defs1">
      <clipPath
         clipPathUnits="userSpaceOnUse"
         id="clipPath1">
        <path
           d="M0 0 L1500 0 L1500 750 L0 750 L0 0 Z"
           id="path3" />
      </clipPath>
    </defs>
    <line
       y2="463.33331"
       style="color-interpolation:linearRGB;fill:none;stroke:#262626;stroke-width:0.999999;stroke-linejoin:round;color-rendering:optimizeQuality;image-rendering:optimizeQuality;text-rendering:geometricPrecision"
       x1="195"
       x2="1358"
       y1="463.33331"
       id="line17" />
    <line
       y2="183.0009"
       style="color-interpolation:linearRGB;fill:none;stroke:#262626;stroke-width:0.999999;stroke-linejoin:round;color-rendering:optimizeQuality;image-rendering:optimizeQuality;text-rendering:geometricPrecision"
       x1="195"
       x2="195"
       y1="463.33331"
       id="line19" />
    <g
       style="stroke-linecap:butt; fill:rgb(0,114,189); text-rendering:geometricPrecision; image-rendering:optimizeQuality; color-rendering:optimizeQuality; stroke-linejoin:round; stroke:rgb(0,114,189); color-interpolation:linearRGB; stroke-width:3;"
       id="g29">
      <path
         d="M195 463.3333 L197.3307 463.3333 L199.6613 463.3333 L201.992 463.3333 L204.3226 463.3333 L206.6533 463.3333 L208.984 463.3333 L211.3146 463.3333 L213.6453 463.3333 L215.976 463.3333 L218.3066 463.3333 L220.6373 463.3333 L222.9679 463.3333 L225.2986 463.3333 L227.6293 463.3333 L229.9599 463.3333 L232.2906 463.3333 L234.6212 463.3333 L236.9519 463.3333 L239.2826 463.3333 L241.6132 463.3333 L243.9439 463.3333 L246.2746 463.3333 L248.6052 463.3333 L250.9359 463.3333 L253.2665 463.3333 L255.5972 463.3333 L257.9279 463.3333 L260.2585 463.3333 L262.5892 463.3333 L264.9198 463.3333 L267.2505 463.3333 L269.5812 463.3333 L271.9118 463.3333 L274.2425 463.3333 L276.5732 463.3333 L278.9038 463.3333 L281.2345 463.3333 L283.5651 463.3333 L285.8958 463.3333 L288.2265 463.3333 L290.5571 463.3333 L292.8878 259.6667 L295.2184 259.6667 L297.5491 259.6667 L299.8798 259.6667 L302.2104 259.6667 L304.5411 259.6667 L306.8717 259.6667 L309.2024 259.6667 L311.5331 259.6667 L313.8637 259.6667 L316.1944 259.6667 L318.5251 259.6667 L320.8557 259.6667 L323.1864 259.6667 L325.517 259.6667 L327.8477 259.6667 L330.1783 259.6667 L332.509 259.6667 L334.8397 259.6667 L337.1703 259.6667 L339.501 259.6667 L341.8317 259.6667 L344.1623 259.6667 L346.493 259.6667 L348.8236 259.6667 L351.1543 259.6667 L353.485 259.6667 L355.8156 259.6667 L358.1463 259.6667 L360.477 259.6667 L362.8076 259.6667 L365.1383 259.6667 L367.4689 259.6667 L369.7996 259.6667 L372.1303 259.6667 L374.4609 259.6667 L376.7916 259.6667 L379.1222 259.6667 L381.4529 259.6667 L383.7836 259.6667 L386.1142 259.6667 L388.4449 259.6667 L390.7755 259.6667 L393.1062 259.6667 L395.4369 259.6667 L397.7675 259.6667 L400.0982 259.6667 L402.4289 259.6667 L404.7595 259.6667 L407.0902 259.6667 L409.4208 259.6667 L411.7515 259.6667 L414.0822 259.6667 L416.4128 259.6667 L418.7435 259.6667 L421.0742 259.6667 L423.4048 259.6667 L425.7355 259.6667 L428.0661 259.6667 L430.3968 259.6667 L432.7274 259.6667 L435.0581 259.6667 L437.3888 259.6667 L439.7195 259.6667 L442.0501 259.6667 L444.3808 259.6667 L446.7114 259.6667 L449.0421 259.6667 L451.3727 259.6667 L453.7034 259.6667 L456.0341 259.6667 L458.3647 259.6667 L460.6954 259.6667 L463.0261 259.6667 L465.3567 259.6667 L467.6874 259.6667 L470.018 259.6667 L472.3487 259.6667 L474.6794 259.6667 L477.01 259.6667 L479.3407 259.6667 L481.6714 259.6667 L484.002 259.6667 L486.3327 463.3333 L488.6633 463.3333 L490.994 463.3333 L493.3246 463.3333 L495.6553 463.3333 L497.986 463.3333 L500.3167 463.3333 L502.6473 463.3333 L504.978 463.3333 L507.3086 463.3333 L509.6393 463.3333 L511.9699 463.3333 L514.3006 463.3333 L516.6313 463.3333 L518.9619 463.3333 L521.2926 463.3333 L523.6232 463.3333 L525.9539 463.3333 L528.2845 463.3333 L530.6152 463.3333 L532.9459 463.3333 L535.2766 463.3333 L537.6072 463.3333 L539.9379 463.3333 L542.2686 463.3333 L544.5992 463.3333 L546.9299 463.3333 L549.2606 463.3333 L551.5912 463.3333 L553.9219 463.3333 L556.2525 463.3333 L558.5831 463.3333 L560.9138 463.3333 L563.2444 463.3333 L565.5751 463.3333 L567.9058 463.3333 L570.2365 463.3333 L572.5671 463.3333 L574.8978 463.3333 L577.2285 463.3333 L579.5591 463.3333 L581.8898 463.3333 L584.2205 463.3333 L586.5511 463.3333 L588.8818 463.3333 L591.2124 463.3333 L593.5431 463.3333 L595.8737 463.3333 L598.2044 463.3333 L600.535 463.3333 L602.8657 463.3333 L605.1964 463.3333 L607.527 463.3333 L609.8577 463.3333 L612.1884 463.3333 L614.519 463.3333 L616.8497 463.3333 L619.1804 463.3333 L621.511 463.3333 L623.8417 463.3333 L626.1724 463.3333 L628.503 463.3333 L630.8337 463.3333 L633.1643 463.3333 L635.495 463.3333 L637.8256 463.3333 L640.1563 463.3333 L642.4869 463.3333 L644.8176 463.3333 L647.1483 463.3333 L649.4789 463.3333 L651.8096 463.3333 L654.1403 463.3333 L656.4709 463.3333 L658.8016 463.3333 L661.1323 463.3333 L663.463 463.3333 L665.7936 463.3333 L668.1243 463.3333 L670.4549 463.3333 L672.7856 463.3333 L675.1162 463.3333 L677.4469 463.3333 L679.7775 259.6667 L682.1082 259.6667 L684.4389 259.6667 L686.7695 259.6667 L689.1002 259.6667 L691.4308 259.6667 L693.7615 259.6667 L696.0922 259.6667 L698.4229 259.6667 L700.7535 259.6667 L703.0842 259.6667 L705.4149 259.6667 L707.7455 259.6667 L710.0762 259.6667 L712.4068 259.6667 L714.7375 259.6667 L717.0681 259.6667 L719.3988 259.6667 L721.7294 259.6667 L724.0601 259.6667 L726.3908 259.6667 L728.7214 259.6667 L731.0521 259.6667 L733.3828 259.6667 L735.7134 259.6667 L738.0441 259.6667 L740.3748 259.6667 L742.7054 259.6667 L745.0361 259.6667 L747.3667 259.6667 L749.6974 259.6667 L752.028 259.6667 L754.3587 259.6667 L756.6894 259.6667 L759.02 259.6667 L761.3507 259.6667 L763.6813 259.6667 L766.012 259.6667 L768.3427 259.6667 L770.6733 259.6667 L773.004 259.6667 L775.3347 259.6667 L777.6653 259.6667 L779.996 259.6667 L782.3267 259.6667 L784.6573 259.6667 L786.988 259.6667 L789.3186 259.6667 L791.6493 259.6667 L793.9799 259.6667 L796.3106 259.6667 L798.6413 259.6667 L800.9719 259.6667 L803.3026 259.6667 L805.6333 259.6667 L807.9639 259.6667 L810.2946 259.6667 L812.6252 259.6667 L814.9559 259.6667 L817.2866 259.6667 L819.6172 259.6667 L821.9479 259.6667 L824.2786 259.6667 L826.6092 259.6667 L828.9399 259.6667 L831.2706 259.6667 L833.6012 259.6667 L835.9318 259.6667 L838.2625 259.6667 L840.5932 259.6667 L842.9239 259.6667 L845.2545 259.6667 L847.5851 259.6667 L849.9158 259.6667 L852.2465 259.6667 L854.5771 259.6667 L856.9078 259.6667 L859.2385 259.6667 L861.5692 259.6667 L863.8998 259.6667 L866.2305 259.6667 L868.5612 259.6667 L870.8917 259.6667 L873.2224 259.6667 L875.5531 463.3333 L877.8838 463.3333 L880.2145 463.3333 L882.545 463.3333 L884.8757 463.3333 L887.2064 463.3333 L889.5371 463.3333 L891.8677 463.3333 L894.1984 463.3333 L896.5291 463.3333 L898.8597 463.3333 L901.1904 463.3333 L903.5211 463.3333 L905.8517 463.3333 L908.1823 463.3333 L910.513 463.3333 L912.8437 463.3333 L915.1744 463.3333 L917.5051 463.3333 L919.8356 463.3333 L922.1663 463.3333 L924.497 463.3333 L926.8277 463.3333 L929.1583 463.3333 L931.489 463.3333 L933.8196 463.3333 L936.1503 463.3333 L938.481 463.3333 L940.8116 463.3333 L943.1423 463.3333 L945.4729 463.3333 L947.8036 463.3333 L950.1343 463.3333 L952.465 463.3333 L954.7957 463.3333 L957.1262 463.3333 L959.4569 463.3333 L961.7876 463.3333 L964.1182 463.3333 L966.4489 463.3333 L968.7795 463.3333 L971.1102 463.3333 L973.4409 463.3333 L975.7715 463.3333 L978.1022 463.3333 L980.4329 463.3333 L982.7635 463.3333 L985.0942 463.3333 L987.4249 463.3333 L989.7556 463.3333 L992.0861 463.3333 L994.4168 463.3333 L996.7475 463.3333 L999.0782 463.3333 L1001.4088 463.3333 L1003.7394 463.3333 L1006.0701 463.3333 L1008.4008 463.3333 L1010.7314 463.3333 L1013.0621 463.3333 L1015.3928 463.3333 L1017.7234 463.3333 L1020.0541 463.3333 L1022.3848 463.3333 L1024.7155 463.3333 L1027.0461 463.3333 L1029.3767 463.3333 L1031.7074 463.3333 L1034.0381 463.3333 L1036.3688 463.3333 L1038.6995 463.3333 L1041.03 463.3333 L1043.3607 463.3333 L1045.6914 463.3333 L1048.0221 463.3333 L1050.3528 463.3333 L1052.6833 463.3333 L1055.014 463.3333 L1057.3447 463.3333 L1059.6754 463.3333 L1062.006 463.3333 L1064.3367 463.3333 L1066.6674 463.3333 L1068.998 259.6667 L1071.3286 259.6667 L1073.6593 259.6667 L1075.99 259.6667 L1078.3206 259.6667 L1080.6512 259.6667 L1082.9819 259.6667 L1085.3126 259.6667 L1087.6433 259.6667 L1089.9739 259.6667 L1092.3046 259.6667 L1094.6353 259.6667 L1096.9659 259.6667 L1099.2966 259.6667 L1101.6272 259.6667 L1103.9579 259.6667 L1106.2886 259.6667 L1108.6193 259.6667 L1110.95 259.6667 L1113.2805 259.6667 L1115.6112 259.6667 L1117.9419 259.6667 L1120.2726 259.6667 L1122.6033 259.6667 L1124.934 259.6667 L1127.2645 259.6667 L1129.5952 259.6667 L1131.9259 259.6667 L1134.2565 259.6667 L1136.5872 259.6667 L1138.9178 259.6667 L1141.2485 259.6667 L1143.5791 259.6667 L1145.9098 259.6667 L1148.2405 259.6667 L1150.5712 259.6667 L1152.9017 259.6667 L1155.2324 259.6667 L1157.5631 259.6667 L1159.8938 259.6667 L1162.2244 259.6667 L1164.5551 259.6667 L1166.8857 259.6667 L1169.2164 259.6667 L1171.5471 259.6667 L1173.8778 259.6667 L1176.2084 259.6667 L1178.5391 259.6667 L1180.8698 259.6667 L1183.2004 259.6667 L1185.5311 259.6667 L1187.8617 259.6667 L1190.1924 259.6667 L1192.5231 259.6667 L1194.8538 259.6667 L1197.1844 259.6667 L1199.515 259.6667 L1201.8457 259.6667 L1204.1764 259.6667 L1206.5071 259.6667 L1208.8376 259.6667 L1211.1683 259.6667 L1213.499 259.6667 L1215.8297 259.6667 L1218.1603 259.6667 L1220.491 259.6667 L1222.8217 259.6667 L1225.1523 259.6667 L1227.4829 259.6667 L1229.8136 259.6667 L1232.1443 259.6667 L1234.475 259.6667 L1236.8055 259.6667 L1239.1362 259.6667 L1241.4669 259.6667 L1243.7976 259.6667 L1246.1283 259.6667 L1248.4589 259.6667 L1250.7896 259.6667 L1253.1202 259.6667 L1255.4509 259.6667 L1257.7816 259.6667 L1260.1122 259.6667 L1262.4429 463.3333 L1264.7736 463.3333 L1267.1042 463.3333 L1269.4349 463.3333 L1271.7655 463.3333 L1274.0962 463.3333 L1276.4269 463.3333 L1278.7576 463.3333 L1281.0883 463.3333 L1283.4188 463.3333 L1285.7495 463.3333 L1288.0802 463.3333 L1290.4108 463.3333 L1292.7415 463.3333 L1295.0721 463.3333 L1297.4028 463.3333 L1299.7334 463.3333 L1302.0641 463.3333 L1304.3948 463.3333 L1306.7255 463.3333 L1309.056 463.3333 L1311.3867 463.3333 L1313.7174 463.3333 L1316.0481 463.3333 L1318.3788 463.3333 L1320.7094 463.3333 L1323.04 463.3333 L1325.3707 463.3333 L1327.7014 463.3333 L1330.0321 463.3333 L1332.3627 463.3333 L1334.6934 463.3333 L1337.024 463.3333 L1339.3547 463.3333 L1341.6854 463.3333 L1344.0161 463.3333 L1346.3467 463.3333 L1348.6774 463.3333 L1351.0081 463.3333 L1353.3387 463.3333 L1355.6693 463.3333 L1358 463.3333"
         style="fill:none;fill-rule:evenodd;stroke:#000000;stroke-opacity:1"
         id="path23" />
      <path
         d="M195 463.3333 L197.3307 463.3333 L199.6613 463.3333 L201.992 463.3333 L204.3226 463.3333 L206.6533 463.3333 L208.984 463.3333 L211.3146 463.3333 L213.6453 463.3333 L215.976 463.3333 L218.3066 463.3333 L220.6373 463.3333 L222.9679 463.3333 L225.2986 463.3333 L227.6293 463.3333 L229.9599 463.3333 L232.2906 463.3333 L234.6212 463.3333 L236.9519 463.3333 L239.2826 463.3333 L241.6132 463.3333 L243.9439 463.3333 L246.2746 463.3333 L248.6052 463.3333 L250.9359 463.3333 L253.2665 463.3333 L255.5972 463.3333 L257.9279 463.3333 L260.2585 463.3333 L262.5892 463.3333 L264.9198 463.3333 L267.2505 463.3333 L269.5812 463.3333 L271.9118 463.3333 L274.2425 463.3333 L276.5732 463.3333 L278.9038 463.3333 L281.2345 463.3333 L283.5651 463.3333 L285.8958 463.3333 L288.2265 463.3333 L290.5571 463.3333 L292.8878 463.3333 L295.2184 461.0252 L297.5491 454.6673 L299.8798 445.0679 L302.2104 432.9731 L304.5411 419.0608 L306.8717 403.9372 L309.2024 388.1349 L311.5331 372.1137 L313.8637 356.2622 L316.1944 340.9012 L318.5251 326.2878 L320.8557 312.6201 L323.1864 300.0428 L325.517 288.6526 L327.8477 278.5045 L330.1783 269.6165 L332.509 261.9765 L334.8397 255.5464 L337.1703 250.2682 L339.501 246.0678 L341.8317 242.8599 L344.1623 240.5512 L346.493 239.0441 L348.8236 238.2395 L351.1543 238.0392 L353.485 238.3478 L355.8156 239.0746 L358.1463 240.1346 L360.477 241.4494 L362.8076 242.9481 L365.1383 244.5673 L367.4689 246.2515 L369.7996 247.953 L372.1303 249.6315 L374.4609 251.2537 L376.7916 252.7934 L379.1222 254.2302 L381.4529 255.5495 L383.7836 256.7417 L386.1142 257.8015 L388.4449 258.7274 L390.7755 259.5212 L393.1062 260.1872 L395.4369 260.7318 L397.7675 261.1631 L400.0982 261.4904 L402.4289 261.7234 L404.7595 261.8728 L407.0902 261.9489 L409.4208 261.9623 L411.7515 261.923 L414.0822 261.8405 L416.4128 261.7238 L418.7435 261.581 L421.0742 261.4197 L423.4048 261.2465 L425.7355 261.0671 L428.0661 260.8864 L430.3968 260.7088 L432.7274 260.5375 L435.0581 260.3754 L437.3888 260.2244 L439.7195 260.086 L442.0501 259.9613 L444.3808 259.8506 L446.7114 259.7542 L449.0421 259.6718 L451.3727 259.6028 L453.7034 259.5467 L456.0341 259.5024 L458.3647 259.4691 L460.6954 259.4456 L463.0261 259.4308 L465.3567 259.4237 L467.6874 259.4231 L470.018 259.4279 L472.3487 259.4373 L474.6794 259.4501 L477.01 259.4656 L479.3407 259.4829 L481.6714 259.5014 L484.002 259.5205 L486.3327 259.5397 L488.6633 261.8666 L490.994 268.2426 L493.3246 277.8591 L495.6553 289.9698 L497.986 303.8965 L500.3167 319.0332 L502.6473 334.847 L504.978 350.8782 L507.3086 366.7383 L509.6393 382.1064 L511.9699 396.7257 L514.3006 410.3979 L516.6313 422.9786 L518.9619 434.3711 L521.2926 444.5207 L523.6232 453.4093 L525.9539 461.0493 L528.2845 467.4788 L530.6152 472.756 L532.9459 476.955 L535.2766 480.1612 L537.6072 482.4681 L539.9379 483.9732 L542.2686 484.7758 L544.5992 484.974 L546.9299 484.6634 L549.2606 483.9347 L551.5912 482.873 L553.9219 481.5565 L556.2525 480.0563 L558.5831 478.4357 L560.9138 476.7502 L563.2444 475.0477 L565.5751 473.3683 L567.9058 471.7454 L570.2365 470.2051 L572.5671 468.7679 L574.8978 467.4482 L577.2285 466.2558 L579.5591 465.1958 L581.8898 464.2698 L584.2205 463.4761 L586.5511 462.8102 L588.8818 462.2656 L591.2124 461.8345 L593.5431 461.5074 L595.8737 461.2746 L598.2044 461.1254 L600.535 461.0495 L602.8657 461.0363 L605.1964 461.0759 L607.527 461.1586 L609.8577 461.2755 L612.1884 461.4184 L614.519 461.5798 L616.8497 461.7532 L619.1804 461.9327 L621.511 462.1135 L623.8417 462.2912 L626.1724 462.4626 L628.503 462.6248 L630.8337 462.7758 L633.1643 462.9142 L635.495 463.039 L637.8256 463.1497 L640.1563 463.2461 L642.4869 463.3285 L644.8176 463.3975 L647.1483 463.4536 L649.4789 463.4979 L651.8096 463.5312 L654.1403 463.5547 L656.4709 463.5694 L658.8016 463.5765 L661.1323 463.5771 L663.463 463.5722 L665.7936 463.5628 L668.1243 463.55 L670.4549 463.5345 L672.7856 463.5172 L675.1162 463.4986 L677.4469 463.4795 L679.7775 463.4603 L682.1082 461.1334 L684.4389 454.7574 L686.7695 445.1409 L689.1002 433.0302 L691.4308 419.1035 L693.7615 403.9668 L696.0922 388.153 L698.4229 372.1217 L700.7535 356.2617 L703.0842 340.8935 L705.4149 326.2743 L707.7455 312.602 L710.0762 300.0213 L712.4068 288.6289 L714.7375 278.4793 L717.0681 269.5907 L719.3988 261.9506 L721.7294 255.5211 L724.0601 250.244 L726.3908 246.045 L728.7214 242.8388 L731.0521 240.5319 L733.3828 239.0268 L735.7134 238.2243 L738.0441 238.026 L740.3748 238.3366 L742.7054 239.0653 L745.0361 240.127 L747.3667 241.4435 L749.6974 242.9437 L752.028 244.5643 L754.3587 246.2498 L756.6894 247.9523 L759.02 249.6316 L761.3507 251.2546 L763.6813 252.7949 L766.012 254.2322 L768.3427 255.5518 L770.6733 256.7442 L773.004 257.8042 L775.3347 258.7302 L777.6653 259.5239 L779.996 260.1899 L782.3267 260.7344 L784.6573 261.1655 L786.988 261.4926 L789.3186 261.7254 L791.6493 261.8746 L793.9799 261.9505 L796.3106 261.9637 L798.6413 261.9241 L800.9719 261.8414 L803.3026 261.7245 L805.6333 261.5816 L807.9639 261.4202 L810.2946 261.2468 L812.6252 261.0673 L814.9559 260.8865 L817.2866 260.7088 L819.6172 260.5374 L821.9479 260.3752 L824.2786 260.2242 L826.6092 260.0858 L828.9399 259.961 L831.2706 259.8503 L833.6012 259.7539 L835.9318 259.6715 L838.2625 259.6025 L840.5932 259.5464 L842.9239 259.5021 L845.2545 259.4688 L847.5851 259.4454 L849.9158 259.4306 L852.2465 259.4235 L854.5771 259.4229 L856.9078 259.4278 L859.2385 259.4372 L861.5692 259.45 L863.8998 259.4655 L866.2305 259.4828 L868.5612 259.5014 L870.8917 259.5205 L873.2224 259.5397 L875.5531 259.5585 L877.8838 261.8847 L880.2145 268.2597 L882.545 277.875 L884.8757 289.9843 L887.2064 303.9096 L889.5371 319.0447 L891.8677 334.8571 L894.1984 350.8868 L896.5291 366.7455 L898.8597 382.1123 L901.1904 396.7303 L903.5211 410.4014 L905.8517 422.981 L908.1823 434.3726 L910.513 444.5214 L912.8437 453.4093 L915.1744 461.0488 L917.5051 467.4778 L919.8356 472.7546 L922.1663 476.9533 L924.497 480.1594 L926.8277 482.4661 L929.1583 483.9712 L931.489 484.7737 L933.8196 484.972 L936.1503 484.6615 L938.481 483.9329 L940.8116 482.8713 L943.1423 481.555 L945.4729 480.0549 L947.8036 478.4345 L950.1343 476.7492 L952.465 475.0468 L954.7957 473.3676 L957.1262 471.7448 L959.4569 470.2047 L961.7876 468.7675 L964.1182 467.4479 L966.4489 466.2556 L968.7795 465.1958 L971.1102 464.2699 L973.4409 463.4761 L975.7715 462.8102 L978.1022 462.2658 L980.4329 461.8347 L982.7635 461.5076 L985.0942 461.2748 L987.4249 461.1256 L989.7556 461.0497 L992.0861 461.0365 L994.4168 461.0761 L996.7475 461.1588 L999.0782 461.2757 L1001.4088 461.4185 L1003.7394 461.58 L1006.0701 461.7533 L1008.4008 461.9329 L1010.7314 462.1136 L1013.0621 462.2913 L1015.3928 462.4626 L1017.7234 462.6248 L1020.0541 462.7759 L1022.3848 462.9142 L1024.7155 463.039 L1027.0461 463.1497 L1029.3767 463.2461 L1031.7074 463.3285 L1034.0381 463.3975 L1036.3688 463.4536 L1038.6995 463.4978 L1041.03 463.5312 L1043.3607 463.5546 L1045.6914 463.5693 L1048.0221 463.5764 L1050.3528 463.577 L1052.6833 463.5721 L1055.014 463.5628 L1057.3447 463.55 L1059.6754 463.5345 L1062.006 463.5171 L1064.3367 463.4986 L1066.6674 463.4795 L1068.998 463.4603 L1071.3286 461.1334 L1073.6593 454.7574 L1075.99 445.1409 L1078.3206 433.0302 L1080.6512 419.1035 L1082.9819 403.9668 L1085.3126 388.153 L1087.6433 372.1217 L1089.9739 356.2617 L1092.3046 340.8935 L1094.6353 326.2743 L1096.9659 312.6021 L1099.2966 300.0213 L1101.6272 288.6289 L1103.9579 278.4793 L1106.2886 269.5907 L1108.6193 261.9506 L1110.95 255.5211 L1113.2805 250.244 L1115.6112 246.045 L1117.9419 242.8388 L1120.2726 240.5319 L1122.6033 239.0268 L1124.934 238.2243 L1127.2645 238.026 L1129.5952 238.3366 L1131.9259 239.0653 L1134.2565 240.127 L1136.5872 241.4435 L1138.9178 242.9437 L1141.2485 244.5643 L1143.5791 246.2498 L1145.9098 247.9523 L1148.2405 249.6316 L1150.5712 251.2546 L1152.9017 252.7949 L1155.2324 254.2322 L1157.5631 255.5518 L1159.8938 256.7442 L1162.2244 257.8042 L1164.5551 258.7302 L1166.8857 259.5239 L1169.2164 260.1899 L1171.5471 260.7344 L1173.8778 261.1655 L1176.2084 261.4926 L1178.5391 261.7254 L1180.8698 261.8746 L1183.2004 261.9505 L1185.5311 261.9637 L1187.8617 261.9241 L1190.1924 261.8414 L1192.5231 261.7245 L1194.8538 261.5816 L1197.1844 261.4202 L1199.515 261.2468 L1201.8457 261.0673 L1204.1764 260.8865 L1206.5071 260.7088 L1208.8376 260.5374 L1211.1683 260.3752 L1213.499 260.2242 L1215.8297 260.0858 L1218.1603 259.961 L1220.491 259.8503 L1222.8217 259.7539 L1225.1523 259.6715 L1227.4829 259.6025 L1229.8136 259.5464 L1232.1443 259.5021 L1234.475 259.4688 L1236.8055 259.4454 L1239.1362 259.4306 L1241.4669 259.4235 L1243.7976 259.4229 L1246.1283 259.4278 L1248.4589 259.4372 L1250.7896 259.45 L1253.1202 259.4655 L1255.4509 259.4828 L1257.7816 259.5014 L1260.1122 259.5205 L1262.4429 259.5397 L1264.7736 261.8666 L1267.1042 268.2426 L1269.4349 277.8591 L1271.7655 289.9698 L1274.0962 303.8965 L1276.4269 319.0332 L1278.7576 334.847 L1281.0883 350.8783 L1283.4188 366.7383 L1285.7495 382.1065 L1288.0802 396.7257 L1290.4108 410.3979 L1292.7415 422.9787 L1295.0721 434.3711 L1297.4028 444.5208 L1299.7334 453.4093 L1302.0641 461.0494 L1304.3948 467.4789 L1306.7255 472.756 L1309.056 476.955 L1311.3867 480.1612 L1313.7174 482.4681 L1316.0481 483.9732 L1318.3788 484.7758 L1320.7094 484.974 L1323.04 484.6634 L1325.3707 483.9347 L1327.7014 482.873 L1330.0321 481.5565 L1332.3627 480.0563 L1334.6934 478.4357 L1337.024 476.7502 L1339.3547 475.0477 L1341.6854 473.3683 L1344.0161 471.7454 L1346.3467 470.2051 L1348.6774 468.7679 L1351.0081 467.4482 L1353.3387 466.2558 L1355.6693 465.1958 L1358 464.2698"
         style="fill:none; fill-rule:evenodd; stroke:rgb(217,83,25);"
         id="path25" />
    </g>
  </g>
</svg>
